<mxfile host="app.diagrams.net" modified="2020-09-28T11:38:53.004Z" agent="5.0 (Windows NT 10.0; Win64; x64) AppleWebKit/537.36 (KHTML, like Gecko) Chrome/85.0.4183.121 Safari/537.36" etag="gnjtJeUck97mUr_IEF7Z" version="13.7.5" type="github">
  <diagram id="a8KDBLX9g3OYWfaXSO7s" name="Page-1">
    <mxGraphModel dx="864" dy="490" grid="1" gridSize="10" guides="1" tooltips="1" connect="1" arrows="1" fold="1" page="1" pageScale="1" pageWidth="827" pageHeight="1169" math="0" shadow="0">
      <root>
        <mxCell id="0" />
        <mxCell id="1" style="" parent="0" />
        <mxCell id="gCYpS4esXLs_u5-bpnFK-10" value="&lt;span style=&quot;font-weight: 700&quot;&gt;useCycle&lt;/span&gt;" style="rounded=0;whiteSpace=wrap;html=1;align=center;verticalAlign=top;" vertex="1" parent="1">
          <mxGeometry width="420" height="370" as="geometry" />
        </mxCell>
        <mxCell id="gCYpS4esXLs_u5-bpnFK-3" value="&lt;b&gt;State&lt;br&gt;&lt;font style=&quot;font-size: 10px&quot;&gt;current_index: For the current Index&lt;/font&gt;&lt;br&gt;&lt;/b&gt;" style="rounded=0;whiteSpace=wrap;html=1;verticalAlign=top;" vertex="1" parent="1">
          <mxGeometry y="40" width="420" height="60" as="geometry" />
        </mxCell>
        <mxCell id="gCYpS4esXLs_u5-bpnFK-5" value="&lt;b&gt;Inputs&lt;/b&gt;" style="rounded=0;whiteSpace=wrap;html=1;verticalAlign=top;" vertex="1" parent="1">
          <mxGeometry y="100" width="420" height="40" as="geometry" />
        </mxCell>
        <mxCell id="gCYpS4esXLs_u5-bpnFK-8" value="items: any[] : &lt;span style=&quot;font-weight: normal&quot;&gt;The items to cycle from&lt;/span&gt;" style="text;html=1;strokeColor=none;fillColor=none;align=center;verticalAlign=middle;whiteSpace=wrap;rounded=0;fontStyle=1" vertex="1" parent="1">
          <mxGeometry y="120" width="420" height="20" as="geometry" />
        </mxCell>
        <mxCell id="gCYpS4esXLs_u5-bpnFK-18" value="&lt;div style=&quot;color: rgb(171 , 178 , 191) ; background-color: rgb(40 , 44 , 52) ; font-family: &amp;#34;consolas&amp;#34; , &amp;#34;courier new&amp;#34; , monospace ; font-weight: normal ; font-size: 14px ; line-height: 19px&quot;&gt;&lt;div&gt;&lt;span style=&quot;color: #7f848e ; font-style: italic&quot;&gt;//&amp;nbsp;Current&amp;nbsp;item&amp;nbsp;obtained&amp;nbsp;from&amp;nbsp;current_index&lt;/span&gt;&lt;/div&gt;&lt;div&gt;&lt;span style=&quot;color: #abb2bf&quot;&gt;&amp;nbsp;&amp;nbsp;&lt;/span&gt;&lt;span style=&quot;color: #e06c75&quot;&gt;current_item&lt;/span&gt;&lt;span style=&quot;color: #abb2bf&quot;&gt;:&amp;nbsp;&lt;/span&gt;&lt;span style=&quot;color: #e5c07b&quot;&gt;any&lt;/span&gt;&lt;span style=&quot;color: #abb2bf&quot;&gt;;&lt;/span&gt;&lt;/div&gt;&lt;div&gt;&lt;span style=&quot;color: #abb2bf&quot;&gt;&amp;nbsp;&amp;nbsp;&lt;/span&gt;&lt;span style=&quot;color: #7f848e ; font-style: italic&quot;&gt;//&amp;nbsp;Used&amp;nbsp;to&amp;nbsp;get&amp;nbsp;the&amp;nbsp;next&amp;nbsp;item&amp;nbsp;in&amp;nbsp;the&amp;nbsp;cycle&lt;/span&gt;&lt;/div&gt;&lt;div&gt;&lt;span style=&quot;color: #abb2bf&quot;&gt;&amp;nbsp;&amp;nbsp;&lt;/span&gt;&lt;span style=&quot;color: #61afef&quot;&gt;getNextIndex&lt;/span&gt;&lt;span style=&quot;color: #abb2bf&quot;&gt;:&amp;nbsp;()&amp;nbsp;&lt;/span&gt;&lt;span style=&quot;color: #c678dd&quot;&gt;=&amp;gt;&lt;/span&gt;&lt;span style=&quot;color: #abb2bf&quot;&gt;&amp;nbsp;&lt;/span&gt;&lt;span style=&quot;color: #e5c07b&quot;&gt;void&lt;/span&gt;&lt;span style=&quot;color: #abb2bf&quot;&gt;;&lt;/span&gt;&lt;/div&gt;&lt;div&gt;&lt;span style=&quot;color: #abb2bf&quot;&gt;&amp;nbsp;&amp;nbsp;&lt;/span&gt;&lt;span style=&quot;color: #7f848e ; font-style: italic&quot;&gt;//&amp;nbsp;Used&amp;nbsp;to&amp;nbsp;get&amp;nbsp;the&amp;nbsp;prev&amp;nbsp;item&amp;nbsp;in&amp;nbsp;the&amp;nbsp;cycle&lt;/span&gt;&lt;/div&gt;&lt;div&gt;&lt;span style=&quot;color: #abb2bf&quot;&gt;&amp;nbsp;&amp;nbsp;&lt;/span&gt;&lt;span style=&quot;color: #61afef&quot;&gt;getPrevIndex&lt;/span&gt;&lt;span style=&quot;color: #abb2bf&quot;&gt;:&amp;nbsp;()&amp;nbsp;&lt;/span&gt;&lt;span style=&quot;color: #c678dd&quot;&gt;=&amp;gt;&lt;/span&gt;&lt;span style=&quot;color: #abb2bf&quot;&gt;&amp;nbsp;&lt;/span&gt;&lt;span style=&quot;color: #e5c07b&quot;&gt;void&lt;/span&gt;&lt;span style=&quot;color: #abb2bf&quot;&gt;;&lt;/span&gt;&lt;/div&gt;&lt;div&gt;&lt;span style=&quot;color: #abb2bf&quot;&gt;&amp;nbsp;&amp;nbsp;&lt;/span&gt;&lt;span style=&quot;color: #7f848e ; font-style: italic&quot;&gt;//&amp;nbsp;Checks&amp;nbsp;whether&amp;nbsp;or&amp;nbsp;not&amp;nbsp;the&amp;nbsp;cycle&amp;nbsp;has&amp;nbsp;been&amp;nbsp;xhausted&lt;/span&gt;&lt;/div&gt;&lt;div&gt;&lt;span style=&quot;color: #abb2bf&quot;&gt;&amp;nbsp;&amp;nbsp;&lt;/span&gt;&lt;span style=&quot;color: #e06c75&quot;&gt;hasEnded&lt;/span&gt;&lt;span style=&quot;color: #abb2bf&quot;&gt;:&amp;nbsp;&lt;/span&gt;&lt;span style=&quot;color: #e5c07b&quot;&gt;boolean&lt;/span&gt;&lt;span style=&quot;color: #abb2bf&quot;&gt;;&lt;/span&gt;&lt;/div&gt;&lt;div&gt;&lt;span style=&quot;color: #abb2bf&quot;&gt;&amp;nbsp;&amp;nbsp;&lt;/span&gt;&lt;span style=&quot;color: #7f848e ; font-style: italic&quot;&gt;//&amp;nbsp;Get&amp;nbsp;the&amp;nbsp;current&amp;nbsp;index&amp;nbsp;of&amp;nbsp;the&amp;nbsp;cycle&lt;/span&gt;&lt;/div&gt;&lt;div&gt;&lt;span style=&quot;color: #abb2bf&quot;&gt;&amp;nbsp;&amp;nbsp;&lt;/span&gt;&lt;span style=&quot;color: #e06c75&quot;&gt;current_index&lt;/span&gt;&lt;span style=&quot;color: #abb2bf&quot;&gt;:&amp;nbsp;&lt;/span&gt;&lt;span style=&quot;color: #e5c07b&quot;&gt;number&lt;/span&gt;&lt;span style=&quot;color: #abb2bf&quot;&gt;;&lt;/span&gt;&lt;/div&gt;&lt;div&gt;&lt;span style=&quot;color: #abb2bf&quot;&gt;&amp;nbsp;&amp;nbsp;&lt;/span&gt;&lt;span style=&quot;color: #7f848e ; font-style: italic&quot;&gt;//&amp;nbsp;Checks&amp;nbsp;whether&amp;nbsp;current_index&amp;nbsp;is&amp;nbsp;the&amp;nbsp;last&amp;nbsp;item&lt;/span&gt;&lt;/div&gt;&lt;div&gt;&lt;span style=&quot;color: #abb2bf&quot;&gt;&amp;nbsp;&amp;nbsp;&lt;/span&gt;&lt;span style=&quot;color: #e06c75&quot;&gt;is_last_item&lt;/span&gt;&lt;span style=&quot;color: #abb2bf&quot;&gt;:&amp;nbsp;&lt;/span&gt;&lt;span style=&quot;color: #e5c07b&quot;&gt;boolean&lt;/span&gt;&lt;span style=&quot;color: #abb2bf&quot;&gt;;&lt;/span&gt;&lt;/div&gt;&lt;/div&gt;" style="text;whiteSpace=wrap;html=1;fontSize=11;align=left;verticalAlign=middle;" vertex="1" parent="1">
          <mxGeometry y="140" width="420" height="230" as="geometry" />
        </mxCell>
        <mxCell id="gCYpS4esXLs_u5-bpnFK-24" value="Untitled Layer" parent="0" />
      </root>
    </mxGraphModel>
  </diagram>
</mxfile>
